<svg width="35" height="35" viewBox="0 0 35 35" fill="none" xmlns="http://www.w3.org/2000/svg">
<circle cx="17.5" cy="17.5" r="16.5" stroke="#6D6D6D" stroke-width="2"/>
<path d="M17.5521 11.152C16.5388 11.152 16.0321 10.64 16.0321 9.616V8.672C16.0321 7.66933 16.5388 7.168 17.5521 7.168H18.4801C19.4508 7.168 19.9361 7.66933 19.9361 8.672V9.616C19.9361 10.64 19.4508 11.152 18.4801 11.152H17.5521ZM18.0001 30C17.1041 30 16.6561 29.552 16.6561 28.656V15.12C16.6561 14.224 17.1041 13.776 18.0001 13.776C18.8961 13.776 19.3441 14.224 19.3441 15.12V28.656C19.3441 29.552 18.8961 30 18.0001 30Z" fill="#6D6D6D"/>
</svg>
