<svg width="462" height="299" viewBox="0 0 462 299" fill="none" xmlns="http://www.w3.org/2000/svg">
<path fill-rule="evenodd" clip-rule="evenodd" d="M213.75 0C198.217 0 185.625 12.592 185.625 28.125V84.375C185.625 99.908 198.217 112.5 213.75 112.5H387.281L455.625 163.125L444.978 109.888C454.588 105.416 461.25 95.6734 461.25 84.375V28.125C461.25 12.592 448.658 0 433.125 0H213.75Z" fill="#0092FF"/>
<path fill-rule="evenodd" clip-rule="evenodd" d="M247.5 135C263.033 135 275.625 147.592 275.625 163.125V219.375C275.625 234.908 263.033 247.5 247.5 247.5H73.9688L5.625 298.125L16.2724 244.888C6.66214 240.416 0 230.673 0 219.375V163.125C0 147.592 12.592 135 28.125 135H247.5Z" fill="#6D6D6D"/>
<path fill-rule="evenodd" clip-rule="evenodd" d="M269.261 30.4196C253.038 29.5981 240.136 38.6363 234.09 43.6029C229.582 47.3065 229.582 53.8815 233.449 57.7312C236.823 61.0907 240.47 64.6791 243.311 67.3528C247.571 71.3617 257.297 80.1227 271.924 81.2929C283.354 82.2073 295.86 78.022 307.962 67.8014C311.713 64.6343 312.581 58.8953 309.309 54.7529C305.927 50.4715 300.248 44.7659 293.474 39.982C286.809 35.2753 278.261 30.8752 269.261 30.4196ZM253.185 56.8622C251.56 55.3333 249.627 53.4596 247.61 51.4775C253.018 47.8559 260.381 44.3946 268.533 44.8074C273.577 45.0628 279.442 47.7097 285.163 51.7497C288.841 54.3471 292.118 57.2786 294.658 59.8996C286.426 65.7009 279.013 67.4077 273.073 66.9325C263.69 66.1819 257.089 60.5367 253.185 56.8622ZM379.701 30.6774C395.924 29.8559 408.827 38.8942 414.872 43.8607C419.38 47.5644 419.38 54.1393 415.514 57.9891C412.14 61.3485 408.492 64.9369 405.651 67.6107C401.392 71.6195 391.665 80.3805 377.038 81.5507C365.608 82.4651 353.102 78.2798 341 68.0592C337.25 64.8921 336.381 59.1531 339.653 55.0107C343.035 50.7294 348.714 45.0237 355.489 40.2398C362.154 35.5331 370.702 31.133 379.701 30.6774ZM395.777 57.12C397.402 55.5911 399.335 53.7174 401.352 51.7353C395.944 48.1137 388.581 44.6524 380.43 45.0652C375.385 45.3206 369.52 47.9675 363.799 52.0075C360.121 54.6049 356.844 57.5364 354.304 60.1574C362.536 65.9588 369.95 67.6655 375.889 67.1904C385.273 66.4397 391.873 60.7945 395.777 57.12Z" fill="white"/>
<path fill-rule="evenodd" clip-rule="evenodd" d="M83.6362 165.42C67.4128 164.598 54.5106 173.636 48.4653 178.603C43.9573 182.307 43.9574 188.882 47.8237 192.731C51.1976 196.091 54.8454 199.679 57.6863 202.353C61.9457 206.362 71.6721 215.123 86.2991 216.293C97.7295 217.207 110.235 213.022 122.337 202.801C126.088 199.634 126.956 193.895 123.684 189.753C120.302 185.472 114.623 179.766 107.849 174.982C101.184 170.275 92.6356 165.875 83.6362 165.42ZM67.5598 191.862C65.9353 190.333 64.0021 188.46 61.9848 186.477C67.3929 182.856 74.7558 179.395 82.9077 179.807C87.9518 180.063 93.8175 182.71 99.5384 186.75C103.216 189.347 106.493 192.279 109.033 194.9C100.801 200.701 93.3876 202.408 87.4479 201.933C78.0646 201.182 71.4639 195.537 67.5598 191.862ZM194.076 165.677C210.299 164.856 223.202 173.894 229.247 178.861C233.755 182.564 233.755 189.139 229.889 192.989C226.515 196.348 222.867 199.937 220.026 202.611C215.767 206.619 206.04 215.381 191.413 216.551C179.983 217.465 167.477 213.28 155.375 203.059C151.625 199.892 150.756 194.153 154.028 190.011C157.41 185.729 163.089 180.024 169.864 175.24C176.529 170.533 185.077 166.133 194.076 165.677ZM210.152 192.12C211.777 190.591 213.71 188.717 215.727 186.735C210.319 183.114 202.956 179.652 194.805 180.065C189.76 180.321 183.895 182.967 178.174 187.008C174.496 189.605 171.219 192.536 168.679 195.157C176.911 200.959 184.325 202.666 190.264 202.19C199.648 201.44 206.248 195.795 210.152 192.12Z" fill="white"/>
</svg>
