<svg width="64" height="38" viewBox="0 0 64 38" fill="none" xmlns="http://www.w3.org/2000/svg">
<path fill-rule="evenodd" clip-rule="evenodd" d="M38.1821 3.89611C38.1821 1.74435 36.4377 0 34.286 0H3.89634C1.74459 0 0.000244141 1.74435 0.000244141 3.89611V11.6883C0.000244141 13.1898 0.849651 14.493 2.09417 15.1435L0.779129 19.6476L8.78662 15.5844H34.286C36.4377 15.5844 38.1821 13.8401 38.1821 11.6883V3.89611ZM6.88154 11.616C6.81754 11.7781 6.86448 11.8976 7.02234 11.9744C7.19301 12.0427 7.31248 11.9957 7.38074 11.8336L8.29594 9.7088H12.5583L13.4607 11.8336C13.529 11.9957 13.6442 12.0427 13.8063 11.9744C13.9727 11.8976 14.0197 11.7781 13.9471 11.616L10.7471 4.1024C10.6831 3.96586 10.5807 3.8976 10.4399 3.8976H10.4015C10.2479 3.8976 10.1455 3.96586 10.0943 4.1024L6.88154 11.616ZM12.3279 9.1712H8.52634L10.4399 4.7424L12.3279 9.1712ZM15.3894 11.7312C15.3894 11.9104 15.479 12 15.6582 12C15.8374 12 15.927 11.9104 15.927 11.7312V4.91581L21.3286 11.8464C21.4182 11.9488 21.5121 12 21.6102 12C21.7894 12 21.879 11.9104 21.879 11.7312V4.1664C21.879 3.9872 21.7894 3.8976 21.6102 3.8976C21.431 3.8976 21.3414 3.9872 21.3414 4.1664V10.9818L15.9398 4.0512C15.8502 3.9488 15.7564 3.8976 15.6582 3.8976C15.479 3.8976 15.3894 3.9872 15.3894 4.1664V11.7312ZM24.6633 11.3856C25.0772 11.7952 25.7386 12 26.6474 12H28.1833C29.0922 12 29.7514 11.7952 30.161 11.3856C30.5748 10.9717 30.7818 10.3104 30.7818 9.4016V6.496C30.7818 5.5872 30.5748 4.928 30.161 4.5184C29.7514 4.10453 29.0922 3.8976 28.1833 3.8976H26.6346C25.7343 3.88906 25.0772 4.09173 24.6633 4.5056C24.2537 4.9152 24.0489 5.57866 24.0489 6.496V9.4016C24.0489 10.3104 24.2537 10.9717 24.6633 11.3856ZM28.1833 11.4624H26.6474C26.1439 11.4624 25.7407 11.3963 25.4377 11.264C25.1391 11.1275 24.9215 10.9099 24.7849 10.6112C24.6527 10.3083 24.5865 9.90507 24.5865 9.4016V6.496C24.5865 5.98826 24.6527 5.58293 24.7849 5.28C24.9172 4.97706 25.1327 4.75946 25.4313 4.6272C25.73 4.49493 26.1311 4.43093 26.6346 4.4352H28.1833C28.6868 4.4352 29.0879 4.50346 29.3866 4.64C29.6895 4.77226 29.9071 4.98986 30.0394 5.2928C30.1759 5.59146 30.2442 5.99253 30.2442 6.496V9.4016C30.2442 9.90507 30.1759 10.3083 30.0394 10.6112C29.9071 10.9099 29.6895 11.1275 29.3866 11.264C29.0879 11.3963 28.6868 11.4624 28.1833 11.4624Z" fill="white"/>
<path fill-rule="evenodd" clip-rule="evenodd" d="M25.5999 22.5316C25.5999 20.3798 27.3442 18.6355 29.496 18.6355H59.8856C62.0373 18.6355 63.7817 20.3798 63.7817 22.5316V30.3238C63.7817 31.8254 62.9323 33.1285 61.6877 33.779L63.0028 38.2831L54.9953 34.2199H29.496C27.3442 34.2199 25.5999 32.4756 25.5999 30.3238V22.5316ZM33.2176 30.1069C33.576 30.461 34.1456 30.6381 34.9264 30.6381H35.976C36.6032 30.6381 37.0746 30.5314 37.3904 30.3181C37.7104 30.1047 37.896 29.7719 37.9472 29.3197C37.9557 29.2301 37.9344 29.1618 37.8832 29.1149C37.8362 29.0637 37.768 29.0381 37.6784 29.0381C37.5973 29.0381 37.5354 29.0594 37.4928 29.1021C37.4501 29.1447 37.4224 29.2087 37.4096 29.2941C37.3712 29.5885 37.2432 29.7975 37.0256 29.9213C36.808 30.0407 36.4581 30.1005 35.976 30.1005H34.9264C34.2992 30.1005 33.8576 29.9746 33.6016 29.7229C33.3498 29.4669 33.224 29.0253 33.224 28.3981V26.9645C33.224 26.3287 33.3498 25.8871 33.6016 25.6397C33.8576 25.3879 34.2992 25.2663 34.9264 25.2749H35.976C36.4581 25.2749 36.808 25.3367 37.0256 25.4605C37.2432 25.5799 37.3712 25.7869 37.4096 26.0813C37.4224 26.1623 37.4501 26.2263 37.4928 26.2733C37.5354 26.3159 37.5973 26.3373 37.6784 26.3373C37.768 26.3373 37.8362 26.3138 37.8832 26.2669C37.9344 26.2157 37.9557 26.1453 37.9472 26.0557C37.896 25.5991 37.7104 25.2663 37.3904 25.0573C37.0746 24.8439 36.6032 24.7373 35.976 24.7373H34.9264C34.1456 24.7287 33.576 24.9037 33.2176 25.2621C32.8634 25.6162 32.6864 26.1837 32.6864 26.9645V28.3981C32.6864 29.1789 32.8634 29.7485 33.2176 30.1069ZM39.9894 30.3693C39.9894 30.5485 40.079 30.6381 40.2582 30.6381C40.4374 30.6381 40.527 30.5485 40.527 30.3693V26.7597C40.5696 26.2519 40.7808 25.8786 41.1606 25.6397C41.5403 25.3965 42.0843 25.2749 42.7926 25.2749H43.151C43.7782 25.2749 44.2176 25.4029 44.4694 25.6589C44.7254 25.9106 44.8534 26.3501 44.8534 26.9773V30.3693C44.8534 30.5485 44.943 30.6381 45.1222 30.6381C45.3014 30.6381 45.391 30.5485 45.391 30.3693V26.9773C45.391 26.1965 45.2118 25.629 44.8534 25.2749C44.4992 24.9165 43.9318 24.7373 43.151 24.7373H42.7926C41.6704 24.7373 40.9152 25.0743 40.527 25.7485V22.0749C40.527 21.8957 40.4374 21.8061 40.2582 21.8061C40.079 21.8061 39.9894 21.8957 39.9894 22.0749V30.3693ZM47.6405 30.1965C47.9391 30.4909 48.4106 30.6381 49.0549 30.6381H49.7717C50.8895 30.6381 51.6447 30.2967 52.0373 29.6141V30.3693C52.0373 30.5485 52.1269 30.6381 52.3061 30.6381C52.4853 30.6381 52.5749 30.5485 52.5749 30.3693V26.9773C52.5749 26.1965 52.3957 25.629 52.0373 25.2749C51.6831 24.9165 51.1157 24.7373 50.3349 24.7373H49.5925C48.8629 24.7373 48.3082 24.8482 47.9285 25.0701C47.553 25.2919 47.3482 25.6461 47.3141 26.1325C47.3098 26.2221 47.3311 26.2925 47.3781 26.3437C47.425 26.3906 47.4933 26.4141 47.5829 26.4141C47.6682 26.4141 47.7301 26.3927 47.7685 26.3501C47.8111 26.3031 47.8389 26.2391 47.8517 26.1581C47.9029 25.8381 48.0607 25.6119 48.3253 25.4797C48.5898 25.3431 49.0122 25.2749 49.5925 25.2749H50.3349C50.9535 25.2749 51.3909 25.3986 51.6469 25.6461C51.9029 25.8893 52.033 26.3117 52.0373 26.9133H49.0549C48.4149 26.9133 47.9455 27.0626 47.6469 27.3613C47.3482 27.6599 47.1989 28.1335 47.1989 28.7821C47.1989 29.4263 47.3461 29.8978 47.6405 30.1965ZM49.7717 30.1005H49.0549C48.5642 30.1005 48.2207 30.0045 48.0245 29.8125C47.8325 29.6162 47.7365 29.2727 47.7365 28.7821C47.7365 28.2829 47.8325 27.9373 48.0245 27.7453C48.2207 27.549 48.5642 27.4509 49.0549 27.4509H52.0373V28.5901C52.0074 28.9485 51.8965 29.2386 51.7045 29.4605C51.5167 29.6823 51.2586 29.8445 50.9301 29.9469C50.6058 30.0493 50.2197 30.1005 49.7717 30.1005ZM55.4684 30.1133C55.8182 30.4631 56.3772 30.6381 57.1452 30.6381C57.3329 30.6381 57.4268 30.5485 57.4268 30.3693C57.4268 30.2839 57.4076 30.2178 57.3692 30.1709C57.3308 30.1239 57.2561 30.1005 57.1452 30.1005C56.5265 30.1005 56.0934 29.9789 55.846 29.7357C55.6028 29.4925 55.4812 29.0637 55.4812 28.4493V25.2749H57.1324C57.3116 25.2749 57.4012 25.1853 57.4012 25.0061C57.4012 24.8269 57.3116 24.7373 57.1324 24.7373H55.4812V23.2141C55.4812 23.0349 55.3916 22.9453 55.2124 22.9453C55.0332 22.9453 54.9436 23.0349 54.9436 23.2141V24.7373H54.1372C53.958 24.7373 53.8684 24.8269 53.8684 25.0061C53.8684 25.1853 53.958 25.2749 54.1372 25.2749H54.9436V28.4493C54.9436 29.2087 55.1185 29.7634 55.4684 30.1133Z" fill="white"/>
</svg>
