<svg width="85" height="85" viewBox="0 0 85 85" fill="none" xmlns="http://www.w3.org/2000/svg">
<circle cx="42.1875" cy="42.1875" r="39.6875" fill="#FFD700" stroke="#FFF53C" stroke-width="5"/>
<path d="M25.9531 66.6719C23.9844 66.6719 23 65.6875 23 63.7187V21.9531C23 19.9844 23.9844 19 25.9531 19C26.9609 19 27.9453 19.5859 28.9063 20.7578L57.1719 57.1797H55.6953V21.9531C55.6953 19.9844 56.6797 19 58.6484 19C60.6172 19 61.6016 19.9844 61.6016 21.9531V63.7187C61.6016 65.6875 60.6172 66.6719 58.6484 66.6719C57.5938 66.6719 56.6094 66.0859 55.6953 64.9141L27.4297 28.4922H28.9063V63.7187C28.9063 65.6875 27.9219 66.6719 25.9531 66.6719Z" fill="#FFFF78"/>
</svg>
