<svg width="30" height="31" viewBox="0 0 30 31" fill="none" xmlns="http://www.w3.org/2000/svg">
<path d="M7.5 24.1406V22.6406C7.5 18.4985 10.8579 15.1406 15 15.1406C19.1421 15.1406 22.5 18.4985 22.5 22.6406V24.1406" stroke="white" stroke-width="1.64372" stroke-linecap="round"/>
<path d="M15 15.1406C17.4853 15.1406 19.5 13.126 19.5 10.6406C19.5 8.15535 17.4853 6.14062 15 6.14062C12.5146 6.14062 10.5 8.15535 10.5 10.6406C10.5 13.126 12.5146 15.1406 15 15.1406Z" stroke="white" stroke-width="1.64372" stroke-linecap="round" stroke-linejoin="round"/>
<path d="M29.1781 15.1406C29.1781 22.971 22.8304 29.3188 15 29.3188C7.16963 29.3188 0.821858 22.971 0.821858 15.1406C0.821858 7.31025 7.16963 0.962483 15 0.962483C22.8304 0.962483 29.1781 7.31025 29.1781 15.1406Z" stroke="white" stroke-width="1.64372"/>
</svg>
