<svg width="27" height="27" viewBox="0 0 27 27" fill="none" xmlns="http://www.w3.org/2000/svg">
<path fill-rule="evenodd" clip-rule="evenodd" d="M19.0612 10.212L10.7882 22.901L10.4753 17.6877C10.4447 17.1777 10.3453 16.6805 10.1839 16.2076C10.271 16.1828 10.3566 16.1469 10.4386 16.0996L14.1733 13.9433C14.7114 13.6327 14.8958 12.9446 14.5851 12.4065C14.2745 11.8685 13.5864 11.6841 13.0483 11.9948L9.3136 14.151C9.2312 14.1986 9.15709 14.255 9.09179 14.3184C8.76394 13.9441 8.38437 13.6109 7.95975 13.3306L3.60137 10.453L18.7268 9.63279C18.8297 9.62721 18.8888 9.64957 18.929 9.67242C18.9782 9.70038 19.0312 9.74925 19.0719 9.81974C19.1126 9.89022 19.1284 9.96057 19.128 10.0172C19.1277 10.0634 19.1175 10.1257 19.0612 10.212ZM18.5847 7.01164C21.0373 6.87865 22.6016 9.5882 21.2602 11.6457L12.9872 24.3346C11.6052 26.4543 8.31957 25.5841 8.16796 23.0583L7.85504 17.845C7.79847 16.9024 7.30141 16.0415 6.5134 15.5212L2.15503 12.6435C0.0434183 11.2493 0.932606 7.96881 3.45924 7.8318L18.5847 7.01164Z" fill="white"/>
</svg>
